<?xml version="1.0" encoding="utf-8"?>
<!-- Generator: Adobe Illustrator 23.0.2, SVG Export Plug-In . SVG Version: 6.00 Build 0)  -->
<svg version="1.1" id="Layer_1" xmlns="http://www.w3.org/2000/svg" xmlns:xlink="http://www.w3.org/1999/xlink" x="0px" y="0px"
	 viewBox="0 0 65 65" style="enable-background:new 0 0 65 65;" xml:space="preserve">
<style type="text/css">
	.st0{fill:url(#SVGID_1_);}
	.st1{fill:url(#SVGID_2_);}
	.st2{fill:url(#SVGID_3_);}
	.st3{fill:url(#SVGID_4_);}
	.st4{fill:#FEFEFE;}
	.st5{fill:url(#SVGID_5_);}
	.st6{fill:#3B176F;}
	.st7{fill:#7542C2;}
</style>
<linearGradient id="SVGID_1_" gradientUnits="userSpaceOnUse" x1="32.4712" y1="34.4578" x2="32.8153" y2="55.9623">
	<stop  offset="0" style="stop-color:#5924A6"/>
	<stop  offset="0.9883" style="stop-color:#491C89"/>
</linearGradient>
<path class="st0" d="M59.9,36.3c0-0.2,0.2-0.2,0.3-0.3c0.5-0.4,1-0.9,1.4-1.4c0.8-1.4,0.8-2.8,0-4.1c-0.4-0.7-1.1-1.1-1.6-1.6
	c-0.1,0-0.3,0.1-0.4,0.1c-0.1,0.1-0.1,0.1-0.2,0.2c-1.6,1.1-3.2,2.1-4.7,3.2c-1.2,0.8-2.4,1.6-3.6,2.4c0,0-0.1,0.1-0.1,0.1l0,0
	c0,0.4-0.4,0.5-0.6,0.7c-2,1.4-3.9,2.9-5.9,4.3c-2.2,1.6-4.4,3.2-6.7,4.8c-1.2,0.9-2.6,1.2-4.1,1.4c-1.6,0.2-3.2-0.1-4.7-0.6
	c-1-0.3-1.9-0.9-2.7-1.5c-2.3-1.7-4.6-3.3-6.9-5c-1.7-1.3-3.4-2.5-5.2-3.8C14.1,35,14,34.9,14,34.8c0-0.1-0.1-0.1-0.1-0.2
	c-0.7-0.6-1.6-1-2.4-1.6c-1.8-1.2-3.6-2.5-5.5-3.7c-0.3-0.2-0.6-0.5-0.9-0.5c-0.3,0.2-0.6,0.5-0.9,0.7c-2.2,2.1-1.5,4.8,0.3,6.2
	C4.8,35.9,5,36,5.1,36.3c-0.7,0.4-1.2,1-1.6,1.6c-0.9,1.4-0.8,2.9,0,4.3c0.4,0.6,1,1.1,1.7,1.6c3.1,2.1,6.1,4.1,9.2,6.2
	c1.5,1,3,2.1,4.6,3.1c2.4,1.6,4.8,3.1,7.2,4.8c2.1,1.5,4.3,2.2,6.8,2.1c1.5,0,2.9-0.3,4.2-1c1.1-0.6,2.2-1.4,3.2-2.1
	c4-2.7,8-5.4,12-8.1c2.1-1.4,4.2-2.8,6.3-4.3c0.8-0.6,1.7-1.1,2.4-1.9c1-1.2,1.4-2.5,0.8-3.9C61.5,37.6,60.8,36.9,59.9,36.3z"/>
<title>indesign</title>
<linearGradient id="SVGID_2_" gradientUnits="userSpaceOnUse" x1="32.4998" y1="36.0877" x2="32.4998" y2="59.3975">
	<stop  offset="0.3427" style="stop-color:#461B85"/>
	<stop  offset="1" style="stop-color:#341462"/>
</linearGradient>
<path class="st1" d="M59.9,36.3c0.9,0.6,1.6,1.3,2,2.4c0.5,1.5,0.2,2.8-0.8,3.9c-0.7,0.8-1.6,1.3-2.4,1.9c-2.1,1.4-4.2,2.8-6.3,4.3
	c-4,2.7-8,5.4-12,8.1c-1.1,0.7-2.1,1.4-3.2,2.1c-1.3,0.7-2.7,1-4.2,1c-2.5,0.1-4.7-0.6-6.8-2.1c-2.3-1.7-4.8-3.2-7.2-4.8
	c-1.5-1-3-2.1-4.6-3.1c-3.1-2.1-6.1-4.1-9.2-6.2c-0.6-0.4-1.3-0.9-1.7-1.6c-0.9-1.4-1-2.9,0-4.3c0.4-0.6,0.9-1.2,1.6-1.6
	c0.2,0,0.3,0.1,0.5,0.2c1.6,1.1,3.1,2.2,4.8,3.2c1.2,0.8,2.4,1.6,3.6,2.4c1.8,1.2,3.5,2.4,5.3,3.6c1.6,1.1,3.3,2.1,4.8,3.2
	c1.1,0.8,2.2,1.6,3.4,2.2c1.9,1.1,4.1,1.4,6.3,1.1c1.7-0.2,3.3-0.8,4.7-1.8c1.9-1.3,3.9-2.6,5.8-3.9c2.1-1.4,4.3-2.9,6.4-4.3
	c2.9-1.9,5.8-3.9,8.7-5.8C59.5,36.4,59.7,36.3,59.9,36.3z"/>
<linearGradient id="SVGID_3_" gradientUnits="userSpaceOnUse" x1="32.605" y1="5.6505" x2="32.4033" y2="51.9413">
	<stop  offset="0" style="stop-color:#8C58DA"/>
	<stop  offset="1" style="stop-color:#5925A4"/>
</linearGradient>
<path class="st2" d="M61.5,30.4c-0.4-0.7-1.1-1.1-1.6-1.6c0.4-0.4,0.9-0.7,1.2-1.1c0.9-1.2,1.3-2.5,0.8-3.9c-0.3-0.9-1-1.7-1.8-2.2
	c-1.7-1.1-3.3-2.2-5-3.4c-1.4-0.9-2.7-1.9-4.1-2.8c-1.9-1.3-3.8-2.5-5.7-3.8c-1.5-1.1-3.1-2.1-4.7-3.1c-1.1-0.7-2.2-1.6-3.4-2.2
	C33.5,4.5,29.9,4.7,26.5,7c-4.9,3.3-9.8,6.6-14.7,9.9c-1.1,0.8-2.3,1.5-3.4,2.3c-1.3,0.8-2.7,1.7-3.9,2.7c-0.4,0.3-0.7,0.6-0.9,1
	c-0.5,0.8-0.8,1.7-0.6,2.7c0.1,1,0.7,1.8,1.4,2.5c0.2,0.2,0.6,0.4,0.8,0.7c0.2,0,0.3,0.1,0.5,0.2c-0.1-0.1-0.3-0.2-0.5-0.2
	c-0.3,0.2-0.6,0.5-0.9,0.7c-2.2,2.1-1.5,4.8,0.3,6.2C4.8,35.9,5,36,5.1,36.3c0.2,0,0.3,0.1,0.5,0.2c1.6,1.1,3.1,2.2,4.8,3.2
	c1.2,0.8,2.4,1.6,3.6,2.4c1.8,1.2,3.5,2.4,5.3,3.6c1.6,1.1,3.3,2.1,4.8,3.2c1.1,0.8,2.2,1.6,3.4,2.2c1.9,1.1,4.1,1.4,6.3,1.1
	c1.7-0.2,3.3-0.8,4.7-1.8c1.9-1.3,3.9-2.6,5.8-3.9c2.1-1.4,4.3-2.9,6.4-4.3c2.9-1.9,5.8-3.9,8.7-5.8c0.1-0.1,0.3-0.2,0.5-0.2
	c0-0.2,0.2-0.2,0.3-0.3c0.5-0.4,1-0.9,1.4-1.4C62.4,33.2,62.3,31.8,61.5,30.4z M59.5,28.9L59.5,28.9L59.5,28.9c-0.1,0-0.1,0-0.2,0
	C59.3,28.9,59.4,28.9,59.5,28.9z M19.1,22.2c1.2-0.9,2.5-1.7,3.7-2.6c0.6-0.3,1.1-0.7,1.7-1.1c1.4-1,2.9-1.8,4.7-2.1
	c2.3-0.3,4.4,0.1,6.2,1.9h0c0.5,0.7,0.8,1.5,0.6,2.4c-0.1,0.5-0.3,0.8-0.6,1.2c0.2,0.1,0.4,0,0.6-0.1c2.8-1.1,5.4-0.9,7.9,0.9
	c0.3,0.2,0.5,0.4,0.7,0.6c1.1,1.3,1.1,2.8-0.1,4.3c-0.4,0.5-0.9,0.9-1.4,1.4c-1.8,1.2-3.7,2.5-5.5,3.7c-0.5,0.4-1.1,0.7-1.6,1
	c-0.2,0.2-0.4,0-0.6-0.1c-2.5-1.7-5-3.3-7.5-5c-1.6-1.1-3.3-2.2-4.9-3.3c-1.3-0.9-2.6-1.7-3.8-2.6C18.7,22.5,18.7,22.5,19.1,22.2z
	 M13.9,34.6c0.1,0,0.1,0.1,0.1,0.2c0.4,0.2,0.8,0.5,1.2,0.8c-0.4-0.3-0.8-0.5-1.2-0.8C14,34.7,14,34.7,13.9,34.6z M37.8,44.5
	c2.2-1.6,4.4-3.2,6.7-4.8C42.2,41.3,40,43,37.8,44.5z"/>
<linearGradient id="SVGID_4_" gradientUnits="userSpaceOnUse" x1="32.513" y1="33.0016" x2="32.7749" y2="49.3709">
	<stop  offset="0" style="stop-color:#5924A6"/>
	<stop  offset="0.9883" style="stop-color:#491C89"/>
</linearGradient>
<path class="st3" d="M59.9,36.3c-0.2,0-0.3,0.1-0.5,0.2c-2.9,1.9-5.8,3.9-8.7,5.8c-2.1,1.4-4.3,2.9-6.4,4.3
	c-1.9,1.3-3.9,2.6-5.8,3.9c-1.4,1-3,1.6-4.7,1.8c-2.2,0.2-4.3,0-6.3-1.1c-1.2-0.7-2.3-1.4-3.4-2.2c-1.6-1.1-3.2-2.2-4.8-3.2
	c-1.8-1.2-3.5-2.4-5.3-3.6c-1.2-0.8-2.4-1.7-3.6-2.4c-1.6-1-3.2-2.2-4.8-3.2c-0.1-0.1-0.3-0.1-0.5-0.2C5,36,4.8,35.9,4.6,35.8
	c-1.8-1.4-2.5-4.1-0.3-6.2c0.3-0.3,0.6-0.5,0.9-0.7c0.4,0.1,0.6,0.3,0.9,0.5c1.8,1.2,3.6,2.5,5.5,3.7c0.8,0.5,1.6,1,2.4,1.6
	c0.1,0,0.1,0.1,0.1,0.2c0,0.1,0.1,0.2,0.2,0.3c1.7,1.3,3.4,2.5,5.2,3.8c2.3,1.7,4.6,3.3,6.9,5c0.8,0.6,1.7,1.2,2.7,1.5
	c1.5,0.5,3.1,0.8,4.7,0.6c1.5-0.2,2.9-0.6,4.1-1.4c2.2-1.6,4.4-3.2,6.7-4.8c2-1.4,3.9-2.9,5.9-4.3c0.3-0.2,0.6-0.3,0.6-0.7l0,0
	c0,0,0.1-0.1,0.1-0.1c1.2-0.8,2.4-1.6,3.6-2.4c1.6-1.1,3.2-2.1,4.7-3.2c0.1,0,0.1-0.1,0.2-0.2c0.1,0,0.3-0.1,0.4-0.1
	c0.6,0.5,1.2,1,1.6,1.6c0.9,1.4,0.9,2.8,0,4.1c-0.3,0.6-0.8,1-1.4,1.4C60.1,36.1,59.9,36.2,59.9,36.3z"/>
<path class="st4" d="M22.9,25.4c-1.3-0.9-2.6-1.7-3.8-2.6c-0.4-0.3-0.4-0.3,0-0.6c1.2-0.9,2.5-1.7,3.7-2.6c0.6-0.3,1.1-0.7,1.7-1.1
	c1.4-1,2.9-1.8,4.7-2.1c2.3-0.3,4.4,0.1,6.2,1.9c0.5,0.7,0.8,1.5,0.6,2.4c-0.1,0.5-0.3,0.8-0.6,1.2c0.2,0.1,0.4,0,0.6-0.1
	c2.8-1.1,5.4-0.9,7.9,0.9c0.3,0.2,0.5,0.4,0.7,0.6c1.1,1.3,1.1,2.8-0.1,4.3c-0.4,0.5-0.9,0.9-1.4,1.4c-1.8,1.2-3.7,2.5-5.5,3.7
	c-0.5,0.4-1.1,0.7-1.6,1c-0.2,0.2-0.4,0-0.6-0.1c-2.5-1.7-5-3.3-7.5-5C26.2,27.6,24.6,26.5,22.9,25.4z M38.3,23
	c-1.1,0-2.1,0.3-3,0.8c-1.8,0.9-3.4,2.2-5.1,3.3c-0.3,0.2-0.1,0.3,0.1,0.4c1.8,1.2,3.6,2.4,5.3,3.6c0.2,0.1,0.4,0.2,0.6,0
	c1.4-1,2.9-1.9,4.3-2.9c0.5-0.4,1-0.8,1.3-1.3c0.7-1,0.6-1.9-0.3-2.7C40.6,23.4,39.6,23,38.3,23z M30.1,18.5c-1.1,0-2.1,0.4-3.1,1
	c-1.3,0.9-2.6,1.8-4,2.6c-0.3,0.2-0.3,0.3,0,0.5c1.6,1.1,3.2,2.1,4.8,3.2c0.2,0.1,0.4,0.2,0.6,0c1.1-0.7,2.2-1.4,3.2-2.2
	c0.7-0.5,1.3-1,1.7-1.6c0.6-0.9,0.4-1.7-0.4-2.4C32.2,18.9,31.2,18.5,30.1,18.5z"/>
<linearGradient id="SVGID_5_" gradientUnits="userSpaceOnUse" x1="32.5838" y1="5.574" x2="32.4092" y2="45.6459">
	<stop  offset="0" style="stop-color:#8C58DA"/>
	<stop  offset="1" style="stop-color:#5925A4"/>
</linearGradient>
<path class="st5" d="M61.9,23.7c-0.3-0.9-1-1.7-1.8-2.2c-1.7-1.1-3.3-2.2-5-3.4c-1.4-0.9-2.7-1.9-4.1-2.8c-1.9-1.3-3.8-2.5-5.7-3.8
	c-1.5-1.1-3.1-2.1-4.7-3.1c-1.1-0.7-2.2-1.6-3.4-2.2C33.5,4.5,29.9,4.7,26.5,7c-4.9,3.3-9.8,6.6-14.7,9.9c-1.1,0.8-2.3,1.5-3.4,2.3
	c-1.3,0.8-2.7,1.7-3.9,2.7c-0.4,0.3-0.7,0.6-0.9,1c-0.5,0.8-0.8,1.7-0.6,2.7c0.1,1,0.7,1.8,1.4,2.5c0.2,0.2,0.6,0.4,0.8,0.7
	c0.4,0.1,0.6,0.3,0.9,0.5c1.8,1.2,3.6,2.5,5.5,3.7c0.8,0.5,1.6,1,2.4,1.6c0.1,0,0.1,0.1,0.1,0.2c0.8,0.5,1.6,1,2.4,1.6
	c-0.8-0.5-1.6-1.1-2.4-1.6c0,0.1,0.1,0.2,0.2,0.3c1.7,1.3,3.4,2.5,5.2,3.8c2.3,1.7,4.6,3.3,6.9,5c0.8,0.6,1.7,1.2,2.7,1.5
	c1.5,0.5,3.1,0.8,4.7,0.6c1.5-0.2,2.9-0.6,4.1-1.4c2.2-1.6,4.4-3.2,6.7-4.8c2-1.4,3.9-2.9,5.9-4.3c0.3-0.2,0.6-0.3,0.6-0.7
	c0,0,0,0,0,0l0,0c-0.1,0-0.1,0.1-0.2,0.1c0.1,0,0.1-0.1,0.2-0.1c0,0,0.1-0.1,0.1-0.1c1.2-0.8,2.4-1.6,3.6-2.4
	c1.6-1.1,3.2-2.1,4.7-3.2c0.1,0,0.1-0.1,0.2-0.2c-0.2,0-0.3,0-0.4,0c0.1,0,0.3-0.1,0.4,0c0.1,0,0.3-0.1,0.4-0.1
	c0.4-0.4,0.9-0.7,1.2-1.1C62,26.5,62.4,25.2,61.9,23.7z M19.1,22.2c1.2-0.9,2.5-1.7,3.7-2.6c0.6-0.3,1.1-0.7,1.7-1.1
	c1.4-1,2.9-1.8,4.7-2.1c2.3-0.3,4.4,0.1,6.2,1.9c0,0,0,0,0,0c0.5,0.7,0.8,1.5,0.6,2.4c-0.1,0.5-0.3,0.8-0.6,1.2
	c0.2,0.1,0.4,0,0.6-0.1c2.8-1.1,5.4-0.9,7.9,0.9c0.3,0.2,0.5,0.4,0.7,0.6c1.1,1.3,1.1,2.8-0.1,4.3c-0.4,0.5-0.9,0.9-1.4,1.4h0
	c-1.8,1.2-3.7,2.5-5.5,3.7c-0.5,0.4-1.1,0.7-1.6,1c-0.2,0.2-0.4,0-0.6-0.1c-2.5-1.7-5-3.3-7.5-5c-1.6-1.1-3.3-2.2-4.9-3.3
	c-1.3-0.9-2.6-1.7-3.8-2.6C18.7,22.5,18.7,22.5,19.1,22.2z M42.3,40.5c-0.2,0.1-0.5,0.3-0.7,0.4C41.9,40.8,42.1,40.7,42.3,40.5z
	 M42.8,40.1c0,0-0.1,0.1-0.1,0.1C42.8,40.2,42.8,40.2,42.8,40.1z M42.7,40.3c-0.1,0.1-0.2,0.2-0.3,0.2
	C42.5,40.4,42.6,40.3,42.7,40.3z M49.9,35.4c0.1-0.1,0.2-0.1,0.3-0.2C50.1,35.3,50,35.3,49.9,35.4z"/>
<path class="st6" d="M51,34.6C51,34.6,51,34.7,51,34.6C51,34.7,51,34.6,51,34.6z"/>
<path class="st7" d="M38.3,23c1.3,0,2.3,0.4,3.3,1.2c0.9,0.8,1,1.7,0.3,2.7c-0.4,0.5-0.8,0.9-1.3,1.3c-1.4,1-2.9,1.9-4.3,2.9
	c-0.2,0.1-0.4,0.1-0.6,0c-1.8-1.2-3.6-2.4-5.3-3.6c-0.2-0.1-0.4-0.2-0.1-0.4c1.7-1.1,3.3-2.3,5.1-3.3C36.2,23.3,37.2,23,38.3,23z"/>
<path class="st7" d="M30.1,18.5c1.2,0,2.1,0.4,2.9,1.1c0.8,0.7,0.9,1.5,0.4,2.4c-0.4,0.7-1.1,1.2-1.7,1.6c-1.1,0.7-2.2,1.4-3.2,2.2
	c-0.2,0.2-0.4,0.1-0.6,0c-1.6-1.1-3.2-2.2-4.8-3.2c-0.3-0.2-0.3-0.3,0-0.5c1.3-0.9,2.6-1.8,4-2.6C27.9,18.9,29,18.5,30.1,18.5z"/>
</svg>
