<?xml version="1.0" encoding="utf-8"?>
<!-- Generator: Adobe Illustrator 23.0.2, SVG Export Plug-In . SVG Version: 6.00 Build 0)  -->
<svg version="1.1" id="Layer_1" xmlns="http://www.w3.org/2000/svg" xmlns:xlink="http://www.w3.org/1999/xlink" x="0px" y="0px"
	 viewBox="0 0 65 65" style="enable-background:new 0 0 65 65;" xml:space="preserve">
<style type="text/css">
	.st0{fill:#0070BA;}
	.st1{fill:#29A8E0;}
	.st2{fill:#FFFFFF;}
	.st3{fill:#EBEBEB;}
</style>
<title>indesign</title>
<g>
	<g>
		<polygon class="st0" points="8.6,5.3 56.4,5.3 52.3,54 32.5,59.7 13.1,54.1 		"/>
	</g>
</g>
<g>
	<g>
		<polygon class="st1" points="32.5,9.3 52.5,9.3 48.3,51 32.5,55.3 		"/>
	</g>
</g>
<polygon class="st2" points="17.6,15.1 47.8,15.1 45.2,46 32.7,49.4 20,45.8 19.1,36.1 25.3,36.1 25.7,41 32.7,42.9 39.2,41.1 
	40,33.4 19.1,33.4 18.6,27.3 40.7,27.3 41.2,21.2 18.2,21.2 "/>
<polygon class="st3" points="32.6,15.1 17.6,15.1 18.2,21.2 32.6,21.2 "/>
<polygon class="st3" points="32.6,42.8 25.7,41 25.3,36.1 19.1,36.1 20,45.8 32.6,49.3 "/>
<polygon class="st3" points="32.6,27.3 18.6,27.3 19.1,33.4 32.6,33.4 "/>
</svg>
