<?xml version="1.0" encoding="utf-8"?>
<!-- Generator: Adobe Illustrator 23.0.2, SVG Export Plug-In . SVG Version: 6.00 Build 0)  -->
<svg version="1.1" id="Layer_1" xmlns="http://www.w3.org/2000/svg" xmlns:xlink="http://www.w3.org/1999/xlink" x="0px" y="0px"
	 viewBox="0 0 65 65" style="enable-background:new 0 0 65 65;" xml:space="preserve">
<style type="text/css">
	.st0{fill:#E44D26;}
	.st1{fill:#F16529;}
	.st2{fill:#FFFFFF;}
	.st3{fill:#EBEBEB;}
</style>
<title>indesign</title>
<g>
	<g>
		<polygon class="st0" points="8.6,5.3 56.4,5.3 52.3,54 32.5,59.7 13.1,54.1 		"/>
	</g>
	<g>
		<polygon class="st1" points="32.5,9.3 52.5,9.3 48.3,51 32.5,55.3 		"/>
	</g>
	<g>
		<polygon class="st2" points="47.8,15.1 17.6,15.1 19.2,33.2 39.9,33.2 39.2,40.9 32.7,42.9 26,40.8 25.7,36.4 19.4,36.4 
			20.1,45.7 32.5,49.4 44.9,46 46.7,27.5 24.9,27.5 24.2,21.2 47.3,21.2 		"/>
	</g>
	<g>
		<polygon class="st3" points="32.9,27.5 24.9,27.5 24.2,21.2 32.9,21.2 32.9,15.1 17.6,15.1 19.2,33.2 32.9,33.2 		"/>
	</g>
	<g>
		<polygon class="st3" points="32.9,42.9 32.7,42.9 26,40.8 25.7,36.4 19.4,36.4 20.1,45.7 32.5,49.4 32.9,49.3 		"/>
	</g>
</g>
</svg>
