<?xml version="1.0" encoding="utf-8"?>
<!-- Generator: Adobe Illustrator 19.2.0, SVG Export Plug-In . SVG Version: 6.00 Build 0)  -->
<svg version="1.1" id="Layer_1" xmlns="http://www.w3.org/2000/svg" xmlns:xlink="http://www.w3.org/1999/xlink" x="0px" y="0px"
	 viewBox="0 0 65 65" style="enable-background:new 0 0 65 65;" xml:space="preserve">
<style type="text/css">
	.st0{fill:#FFFFFF;}
	.st1{fill:#261300;}
	.st2{fill:#FF7C00;}
</style>
<title>illustrator</title>
<rect class="st0" width="65" height="65"/>
<path class="st1" d="M52.6,58.2H12.1c-3.4,0-6.2-2.8-6.2-6.2V12.2C5.9,8.8,8.7,6,12.1,6h40.5c3.4,0,6.2,2.8,6.2,6.2V52
	C58.8,55.4,56,58.2,52.6,58.2z"/>
<g>
	<g>
		<path class="st2" d="M52.6,8.5c2,0,3.7,1.7,3.7,3.7v40.3c0,2-1.7,3.7-3.7,3.7H12.3c-2,0-3.7-1.7-3.7-3.7V12.2c0-2,1.7-3.7,3.7-3.7
			H52.6 M52.6,5.5H12.3c-3.7,0-6.7,3-6.7,6.7v40.3c0,3.7,3,6.7,6.7,6.7h40.3c3.7,0,6.7-3,6.7-6.7V12.2C59.3,8.5,56.3,5.5,52.6,5.5
			L52.6,5.5z"/>
	</g>
</g>
<g>
	<g>
		<path class="st2" d="M29.1,21.2c0.8,0,1.5,0,2.2,0c0.3-0.1,0.6,0.2,0.7,0.5c0,0,0,0,0,0c1.5,4.9,2.9,9.8,4.4,14.7l1.8,6
			c0.2,0.6,0.2,0.6-0.4,0.6c-1.1,0-2.3,0-3.4,0c-0.3,0-0.7-0.2-0.7-0.5c-0.4-1.5-0.9-3-1.3-4.4c0-0.3-0.3-0.5-0.6-0.4c0,0,0,0,0,0
			c-1.8,0-3.6,0-5.3,0c-0.2,0-0.5,0.1-0.5,0.4c0,0,0,0,0,0c-0.4,1.5-0.7,2.9-1.1,4.4c0,0.4-0.4,0.7-0.7,0.6c0,0,0,0,0,0
			c-1,0-2.1,0-3.1,0c-0.6,0-0.6,0-0.5-0.6c1.8-6.1,3.6-12.2,5.4-18.3c0.3-0.8,0.4-1.7,0.3-2.5c0-0.3,0.1-0.4,0.4-0.4L29.1,21.2
			L29.1,21.2L29.1,21.2z M29.2,25.1H29l-2.1,8.5c1.4,0,2.7,0,4,0c0.4,0,0.5-0.1,0.4-0.5c-0.5-1.7-0.9-3.5-1.4-5.2L29.2,25.1z"/>
		<path class="st2" d="M44.3,35.3c0,2.4,0,4.8,0,7.2c0.1,0.2-0.1,0.5-0.3,0.6c-0.1,0-0.2,0-0.2,0c-1,0-2,0-3,0
			c-0.2,0.1-0.4-0.1-0.5-0.3c0-0.1,0-0.1,0-0.2c0-4.9,0-9.7,0-14.6c-0.1-0.2,0.1-0.4,0.3-0.5c0.1,0,0.1,0,0.2,0c1,0,2.1,0,3.1,0
			c0.4,0,0.5,0.2,0.5,0.6C44.3,30.4,44.3,32.8,44.3,35.3z"/>
		<path class="st2" d="M40.1,23.3c0-1.2,1-2.1,2.1-2.1c0,0,0,0,0.1,0c1.1,0.1,2,1,2,2.2c-0.1,1.1-1,2-2.2,2
			C40.9,25.3,40.1,24.4,40.1,23.3z"/>
	</g>
</g>
</svg>
