<?xml version="1.0" encoding="utf-8"?>
<!-- Generator: Adobe Illustrator 19.2.0, SVG Export Plug-In . SVG Version: 6.00 Build 0)  -->
<svg version="1.1" id="Layer_1" xmlns="http://www.w3.org/2000/svg" xmlns:xlink="http://www.w3.org/1999/xlink" x="0px" y="0px"
	 viewBox="0 0 65 65" style="enable-background:new 0 0 65 65;" xml:space="preserve">
<style type="text/css">
	.st0{fill:#FFFFFF;}
	.st1{fill:#2E0013;}
	.st2{fill:#FF3F94;}
</style>
<title>indesign</title>
<rect class="st0" width="65" height="65"/>
<path class="st1" d="M52.6,58.2H12.1c-3.4,0-6.2-2.8-6.2-6.2V12.2C5.9,8.8,8.7,6,12.1,6h40.5c3.4,0,6.2,2.8,6.2,6.2V52
	C58.8,55.4,56,58.2,52.6,58.2z"/>
<g>
	<path class="st2" d="M52.6,8.5c2,0,3.7,1.7,3.7,3.7v40.3c0,2-1.7,3.7-3.7,3.7H12.3c-2,0-3.7-1.7-3.7-3.7V12.2c0-2,1.7-3.7,3.7-3.7
		H52.6 M52.6,5.5H12.3c-3.7,0-6.7,3-6.7,6.7v40.3c0,3.7,3,6.7,6.7,6.7h40.3c3.7,0,6.7-3,6.7-6.7V12.2C59.3,8.5,56.3,5.5,52.6,5.5
		L52.6,5.5z"/>
</g>
<g>
	<g>
		<path class="st2" d="M42.4,30.9c0,2.6,0,5.3,0,7.9c0,0.8,0,1.6,0.1,2.4c0.1,0.3-0.1,0.6-0.4,0.7c-2.8,1.3-6,1.6-9,0.8
			c-1.6-0.5-2.6-1.7-3.5-3.1c-2.5-4.3-1.2-10,2.9-12.5c1.4-0.9,3.2-1.3,4.9-1c0.5,0.1,0.6,0,0.6-0.5c0-1.3,0-2.5,0-3.8
			c0-0.4,0.1-0.6,0.6-0.6c1.1,0,2.2,0,3.3,0c0.4,0,0.6,0.2,0.5,0.6C42.4,24.8,42.4,27.8,42.4,30.9z M38,34.5c0-1.5,0-3,0-4.6
			c0.1-0.2-0.1-0.4-0.3-0.5l0,0c-1.7-0.6-3.5,0.2-4.2,1.9c-0.8,1.9-0.9,4-0.2,5.9c0.6,1.9,2.1,2.7,4.1,2.4c0.3,0,0.5-0.2,0.5-0.5V39
			C38,37.6,38,36,38,34.5L38,34.5z"/>
		<path class="st2" d="M26.5,32c0,3.4,0,6.8,0,10.2c0.1,0.3-0.1,0.6-0.4,0.6c-0.1,0-0.2,0-0.3,0c-1.1,0-2.1,0-3.1,0
			c-0.2,0.1-0.5-0.1-0.6-0.3c0-0.1,0-0.2,0-0.2c0-6.9,0-13.8,0-20.7c-0.1-0.2,0.1-0.5,0.3-0.5c0.1,0,0.2,0,0.2,0c1.1,0,2.2,0,3.3,0
			c0.5,0,0.6,0.2,0.6,0.6C26.5,25.1,26.5,28.6,26.5,32z"/>
	</g>
</g>
</svg>
