<?xml version="1.0" encoding="utf-8"?>
<!-- Generator: Adobe Illustrator 19.2.0, SVG Export Plug-In . SVG Version: 6.00 Build 0)  -->
<svg version="1.1" id="Layer_1" xmlns="http://www.w3.org/2000/svg" xmlns:xlink="http://www.w3.org/1999/xlink" x="0px" y="0px"
	 viewBox="0 0 65 65" style="enable-background:new 0 0 65 65;" xml:space="preserve">
<style type="text/css">
	.st0{fill:#FFFFFF;}
	.st1{fill:#031927;}
	.st2{fill:#0BC4FA;}
</style>
<title>photoshop</title>
<rect class="st0" width="65" height="65"/>
<path class="st1" d="M52.6,58.2H12.1c-3.4,0-6.2-2.8-6.2-6.2V12.2C5.9,8.8,8.7,6,12.1,6h40.5c3.4,0,6.2,2.8,6.2,6.2V52
	C58.8,55.4,56,58.2,52.6,58.2z"/>
<g>
	<g>
		<path class="st2" d="M52.6,8.5c2,0,3.7,1.7,3.7,3.7v40.3c0,2-1.7,3.7-3.7,3.7H12.3c-2,0-3.7-1.7-3.7-3.7V12.2c0-2,1.7-3.7,3.7-3.7
			H52.6 M52.6,5.5H12.3c-3.7,0-6.7,3-6.7,6.7v40.3c0,3.7,3,6.7,6.7,6.7h40.3c3.7,0,6.7-3,6.7-6.7V12.2C59.3,8.5,56.3,5.5,52.6,5.5
			L52.6,5.5z"/>
	</g>
</g>
<g>
	<path class="st2" d="M22.6,43h-3.3V21.1l1.6-0.1c2.1-0.2,4.2-0.1,6.3,0.2c4,0.9,5.7,4,5.3,7.6c-0.4,3.5-2.9,6-6.5,6.3
		c-0.9,0.1-1.9,0.1-2.8,0.2c-0.3-0.1-0.5,0.1-0.6,0.4c0,0.1,0,0.1,0,0.2c0,2.2,0,4.4,0,6.6C22.6,42.6,22.6,42.8,22.6,43z M22.7,28.1
		L22.7,28.1c0,1.1,0,2.2,0,3.3c0,0.2,0.1,0.4,0.3,0.4c0.1,0,0.1,0,0.2,0c0.7,0,1.4,0,2.1,0c2.2-0.1,3.1-1.1,3.6-3.2
		c0.4-2-0.9-3.9-2.8-4.3c-1-0.2-2-0.2-3,0c-0.2,0-0.4,0.2-0.3,0.4c0,0,0,0,0,0.1C22.7,25.9,22.7,27,22.7,28.1z"/>
	<path class="st2" d="M35.5,42.9c0-1.1,0-2.2,0-3.2c0-0.1,0-0.2,0.1-0.3l1.7,0.5c1,0.3,2,0.5,3,0.3c0.6-0.1,1.2-0.5,1.3-1.1
		c0.2-0.5-0.1-1.1-0.6-1.3c-0.9-0.6-1.9-1.2-2.8-1.8c-0.3-0.2-0.7-0.4-1-0.7c-1.5-1-2.2-2.8-1.9-4.5c0.3-2.6,2.3-4,4.6-4.3
		c1.7-0.1,3.4,0,5,0.5l-0.6,3.3l-1.4-0.4c-0.8-0.3-1.6-0.4-2.4-0.3c-0.4,0.1-0.8,0.2-1.1,0.5c-0.6,0.4-0.7,1.1-0.3,1.7
		c0.1,0.1,0.2,0.2,0.3,0.3c0.5,0.4,1.1,0.8,1.7,1.1c0.8,0.5,1.7,1,2.5,1.6c1.4,1,2.2,2.8,1.8,4.5c-0.2,1.8-1.5,3.4-3.2,3.9
		c-1.7,0.5-3.5,0.5-5.3,0.1C36.3,43.1,35.9,43,35.5,42.9z"/>
</g>
</svg>
