<?xml version="1.0" encoding="utf-8"?>
<!-- Generator: Adobe Illustrator 23.0.2, SVG Export Plug-In . SVG Version: 6.00 Build 0)  -->
<svg version="1.1" id="Layer_1" xmlns="http://www.w3.org/2000/svg" xmlns:xlink="http://www.w3.org/1999/xlink" x="0px" y="0px"
	 viewBox="0 0 65 65" style="enable-background:new 0 0 65 65;" xml:space="preserve">
<style type="text/css">
	.st0{fill:#FF1200;}
	.st1{fill:#FFFFFF;}
</style>
<title>indesign</title>
<g>
	<path class="st0" d="M23.3,61.7c-2.3-3.6-4.6-7.1-6.9-10.6c-2.2-3.4-4.4-6.9-6.7-10.2C9,39.7,9.1,38.3,8.9,37
		c-1.1-8.7-2.2-17.3-3.2-26c0-0.3,0-0.5-0.1-0.8c2.1-0.5,4.2-0.9,6.3-1.4C20.4,6.8,28.9,5,37.3,3c0.7-0.2,1.3,0,1.9,0.4
		c6.5,4.5,13,9,19.5,13.5c0.5,0.3,0.6,0.6,0.5,1.2c-0.8,7.2-1.7,14.5-2.5,21.7c-0.3,2.8-0.6,5.5-1,8.3c0,0.3-0.3,0.8-0.6,0.9
		C44.6,53.3,34,57.5,23.3,61.7z M8,10.5c1.2,1.3,2.2,2.5,3.2,3.7c0.3,0.4,0.7,0.5,1.2,0.4c6.9-1.7,13.9-3.3,20.8-5
		c0.6-0.1,1,0,1.5,0.3c3.9,3.1,7.9,6.3,11.8,9.4c0.5,0.4,0.8,0.5,1.4,0.3c1.1-0.4,2.2-0.6,3.3-1c1.7-0.5,3.3-1,5.1-1.5
		c-0.2-0.2-0.4-0.4-0.5-0.5C50,12.4,44.1,8.3,38.2,4.2C37.9,3.9,37.4,3.9,37,4c-6,1.3-12,2.7-18,4C15.4,8.8,11.8,9.6,8,10.5z
		 M44.7,31.4c-0.1-0.2-0.1-0.2-0.2-0.3c-3.6-3.3-7.1-6.6-10.7-9.9c-0.2-0.2-0.7-0.3-1-0.2c-6.2,1.7-12.4,3.4-18.6,5.1
		c-0.2,0.1-0.4,0.2-0.6,0.3c1.2,1.5,2.4,3,3.5,4.5c0.4,0.5,0.7,0.6,1.3,0.4c3.3-1,6.7-2,10-3c0.5-0.2,0.9-0.1,1.3,0.4
		c1.7,1.8,3.4,3.6,5.1,5.4c0.4,0.4,0.7,0.5,1.2,0.3c1.3-0.5,2.7-0.9,4.1-1.3C41.6,32.5,43.1,32,44.7,31.4z M33.4,45.4
		c-1.6-1.9-3.1-3.7-4.6-5.5c-0.1-0.2-0.6-0.2-0.9-0.1c-2.7,0.9-5.3,1.7-8,2.6c-0.2,0.1-0.4,0.2-0.7,0.3c1.4,2,2.8,3.9,4.2,5.7
		c0.1,0.2,0.5,0.3,0.7,0.2C27.2,47.7,30.2,46.6,33.4,45.4z"/>
	<path class="st1" d="M8,10.5c3.8-0.9,7.3-1.7,10.9-2.5c6-1.4,12-2.7,18-4c0.4-0.1,0.9,0,1.3,0.2c5.9,4.1,11.7,8.3,17.6,12.4
		c0.2,0.1,0.3,0.2,0.5,0.5c-1.8,0.5-3.5,1-5.1,1.5c-1.1,0.3-2.2,0.6-3.3,1c-0.6,0.2-1,0.1-1.4-0.3c-3.9-3.1-7.9-6.2-11.8-9.4
		c-0.5-0.4-0.9-0.5-1.5-0.3c-6.9,1.7-13.9,3.3-20.8,5c-0.5,0.1-0.9,0-1.2-0.4C10.2,12.9,9.2,11.8,8,10.5z"/>
	<path class="st1" d="M44.7,31.4c-1.6,0.5-3.1,1-4.7,1.5c-1.4,0.4-2.7,0.9-4.1,1.3c-0.5,0.2-0.8,0.1-1.2-0.3
		c-1.7-1.8-3.4-3.6-5.1-5.4c-0.4-0.4-0.7-0.5-1.3-0.4c-3.3,1-6.7,2-10,3c-0.6,0.2-0.9,0.1-1.3-0.4c-1.1-1.5-2.3-2.9-3.5-4.5
		c0.3-0.1,0.4-0.2,0.6-0.3c6.2-1.7,12.4-3.4,18.6-5.1c0.3-0.1,0.8,0,1,0.2c3.6,3.3,7.2,6.6,10.7,9.9C44.5,31.2,44.6,31.3,44.7,31.4z
		"/>
	<path class="st1" d="M33.4,45.4c-3.2,1.1-6.2,2.2-9.3,3.3c-0.2,0.1-0.6,0-0.7-0.2c-1.4-1.9-2.8-3.8-4.2-5.7
		c0.3-0.1,0.5-0.2,0.7-0.3c2.7-0.9,5.3-1.8,8-2.6c0.3-0.1,0.8-0.1,0.9,0.1C30.3,41.7,31.8,43.5,33.4,45.4z"/>
</g>
</svg>
