<?xml version="1.0" encoding="utf-8"?>
<!-- Generator: Adobe Illustrator 19.2.0, SVG Export Plug-In . SVG Version: 6.00 Build 0)  -->
<svg version="1.1" id="Layer_1" xmlns="http://www.w3.org/2000/svg" xmlns:xlink="http://www.w3.org/1999/xlink" x="0px" y="0px"
	 viewBox="0 0 65 65" style="enable-background:new 0 0 65 65;" xml:space="preserve">
<style type="text/css">
	.st0{fill:#FFFFFF;}
	.st1{fill:#2E001F;}
	.st2{fill:#FF26BE;}
	.st3{fill:#FFD9F2;}
</style>
<rect class="st0" width="65" height="65"/>
<path class="st1" d="M52.6,58.2H12.1c-3.4,0-6.2-2.8-6.2-6.2V12.2C5.9,8.8,8.7,6,12.1,6h40.5c3.4,0,6.2,2.8,6.2,6.2V52
	C58.8,55.4,56,58.2,52.6,58.2z"/>
<g>
	<g>
		<path class="st2" d="M52.6,8.5c2,0,3.7,1.7,3.7,3.7v40.3c0,2-1.7,3.7-3.7,3.7H12.3c-2,0-3.7-1.7-3.7-3.7V12.2c0-2,1.7-3.7,3.7-3.7
			H52.6 M52.6,5.5H12.3c-3.7,0-6.7,3-6.7,6.7v40.3c0,3.7,3,6.7,6.7,6.7h40.3c3.7,0,6.7-3,6.7-6.7V12.2C59.3,8.5,56.3,5.5,52.6,5.5
			L52.6,5.5z"/>
	</g>
</g>
<path class="st0" d="M347.8-34.8c-0.5-2.2-1-4.4-1.4-6.6c-2.6-15.8-17.6-29.6-34-31.1c-1.2-0.1-2.4-0.8-3.7-1.3c12.9,0,25.8,0,39,0
	C347.8-60.8,347.8-47.8,347.8-34.8z"/>
<g>
	<g>
		<path class="st3" d="M17.7,42.8c0.5-1,0.9-1.9,1.4-2.7c1.2-2.4,2.5-4.8,3.8-7.2c0.3-0.6,0.4-1.1,0-1.7c-1.5-2.9-3-5.9-4.4-8.8
			c-0.2-0.3-0.3-0.7-0.5-1.2c1.3,0,2.4,0,3.5,0c0.3,0,0.6,0.4,0.7,0.7c1.2,2.4,2.3,4.9,3.5,7.5c0.7-1.6,1.4-3,2.1-4.5
			c0.2-0.4,0.3-0.8,0.5-1.1c1.4-2.9,1.4-2.9,4.8-2.5c-0.1,0.3-0.3,0.6-0.4,0.9c-1.5,2.9-2.9,5.7-4.4,8.6c-0.3,0.6-0.3,1.1,0,1.7
			c1.6,3,3.2,6.1,4.8,9.1c0.2,0.3,0.3,0.6,0.5,1.1c-1.3,0-2.5,0-3.6,0c-0.3,0-0.6-0.4-0.8-0.7c-1.2-2.5-2.4-5-3.7-7.6
			c-1.1,2.4-2.3,4.7-3.2,7c-0.5,1.1-1.1,1.5-2.2,1.4C19.3,42.7,18.6,42.8,17.7,42.8z"/>
		<path class="st3" d="M43.4,21.2c1.3,0,2.3,0,3.6,0c0,0.4,0,0.9,0,1.3c0,6.2,0,12.4,0,18.6c0,0.3-0.3,0.8-0.5,0.9
			c-2.2,1-4.6,1.3-7,0.7c-2.3-0.6-3.8-2-4.6-4.3c-0.7-2.2-0.8-4.4-0.1-6.6c1-3.1,3.8-5.2,7.1-5.2c0.4,0,0.8,0,1.4,0
			c0-0.9,0-1.8,0-2.7C43.4,23.1,43.4,22.2,43.4,21.2z M43.4,34.8c0-1.4-0.1-2.7,0-4.1c0-0.8-0.3-1-1-1.1c-1.7-0.1-3.3,1-4,2.7
			c-0.6,1.7-0.6,3.5,0,5.2c0.6,1.7,2.3,2.6,4.1,2.4c0.6-0.1,0.9-0.3,0.8-0.9C43.4,37.6,43.4,36.2,43.4,34.8z"/>
	</g>
</g>
</svg>
