<?xml version="1.0" encoding="utf-8"?>
<!-- Generator: Adobe Illustrator 23.0.2, SVG Export Plug-In . SVG Version: 6.00 Build 0)  -->
<svg version="1.1" id="ef155387-c885-4ebf-8cb5-c452ea0af16e"
	 xmlns="http://www.w3.org/2000/svg" xmlns:xlink="http://www.w3.org/1999/xlink" x="0px" y="0px" viewBox="0 0 947 687.1"
	 style="enable-background:new 0 0 947 687.1;" xml:space="preserve">
<style type="text/css">
	.st0{opacity:0.1;fill:#FF3249;enable-background:new    ;}
	.st1{fill:#FF3249;}
	.st2{opacity:0.1;enable-background:new    ;}
	.st3{fill:#141414;}
	.st4{fill:#202020;}
	.st5{fill:#9F616A;}
	.st6{fill:#2F2E41;}
	.st7{fill:#575A88;}
	.st8{fill:#B1AEBF;}
	.st9{opacity:0.7;enable-background:new    ;}
	.st10{fill:#D0CDE1;}
	.st11{opacity:0.3;fill:#FF3249;enable-background:new    ;}
	.st12{fill:#3F3D56;}
</style>
<title>design</title>
<path class="st0" d="M347.7,197.6c-33.3,34.6-88.3,35.6-122.8,2.4c0,0,0,0,0,0c-1.7-1.7-3.3-3.3-4.9-5.1L26,378.4l272.7,288.1
	l260-246.1L347.7,197.6z"/>
<path class="st0" d="M285,206.2c20.7,0,40.5-8.4,54.8-23.4l-54.1-57.1l-57.8,54.7C242.3,196.8,263.1,206.2,285,206.2z"/>
<path class="st1" d="M710.7,289.7c0.1,75.4-61,136.5-136.4,136.6c0,0,0,0,0,0h-2.6c-3.3-0.1-6.5-0.2-9.8-0.5
	c-75.2-6.6-130.6-73-124-148.1s73-130.6,148.1-124C656.6,159.8,710.7,218.9,710.7,289.7z"/>
<path class="st2" d="M653.2,240.3c8.6-15.1,14.1-31.7,16.5-48.9c-54.3-52.4-140.8-50.8-193.2,3.6c-20.1,20.9-33.1,47.7-37,76.4
	c22.4,21.7,51.6,35,82.7,37.8c3.2,0.2,6.5,0.4,9.8,0.5h2.3C583.6,309.6,629,283.1,653.2,240.3z"/>
<rect x="415.1" y="423" class="st3" width="219.4" height="245.1"/>
<path class="st2" d="M704.7,340.7c-17.2,40.4-52.8,70.1-95.7,79.8h30.5v245.1H437.1l113.6-196.7l26-45l1.9-3.3l86.1-149.2
	L704.7,340.7z"/>
<polygon class="st4" points="692.9,273 806.9,470.5 921,668 692.9,668 464.8,668 578.8,470.5 "/>
<polygon class="st5" points="168,628.9 166.5,641.5 157.9,645.5 148.4,642.5 141.8,645.5 139.8,633.9 151.3,620.9 "/>
<path class="st6" d="M162,638.5c0,0,7.8-9.1,7.9-4.5c0.2,4.6,17.2,20.2,17.2,20.2s26.7,8,6,13.1c-20.6,5-66-9.6-67.5-12.6
	c-1.5-3,12.6-26.2,14.1-24.2S148.9,639.5,162,638.5z"/>
<path class="st6" d="M181.1,488.9c0,0,3.1,23.7,0,27.2c-3.1,3.6-1.5,10.6,0,11.6s-2,5-4.6,7c-2.6,2-6,11.1-6,11.1
	s-13.6,35.8-13.6,39.3s-6,11.1-5.5,13.6s-3.6,10.6-3.1,12.1c0.5,1.5-6.5,15.1-4.6,17.1s29.7,9.1,28.2,4.6
	c-1.5-4.5-2.5-10.1-1.5-10.1c1,0,5.5-5.5,4.6-7.6c-1-2,30.2-54.9,30.2-54.9L181.1,488.9z"/>
<path class="st3" d="M162,638.5c0,0,7.8-9.1,7.9-4.5c0.2,4.6,17.2,20.2,17.2,20.2s26.7,8,6,13.1c-20.6,5-66-9.6-67.5-12.6
	c-1.5-3,12.6-26.2,14.1-24.2S148.9,639.5,162,638.5z"/>
<path d="M181.1,488.9c0,0,3.1,23.7,0,27.2c-3.1,3.6-1.5,10.6,0,11.6s-2,5-4.6,7c-2.6,2-6,11.1-6,11.1s-13.6,35.8-13.6,39.3
	s-6,11.1-5.5,13.6s-3.6,10.6-3.1,12.1c0.5,1.5-6.5,15.1-4.6,17.1s29.7,9.1,28.2,4.6c-1.5-4.5-2.5-10.1-1.5-10.1c1,0,5.5-5.5,4.6-7.6
	c-1-2,30.2-54.9,30.2-54.9L181.1,488.9z"/>
<polygon class="st5" points="232.5,622.7 238,636.8 235.5,656.4 219.4,655.4 210.3,647.4 210.3,630.2 "/>
<path class="st3" d="M229.4,639.8c0,0,5.5-18.1,8.5-13.1c1.9,3.3,3.6,6.6,5,10.1c0,0,24.7,16.1,31.2,16.1s12.6,8,4.1,11.1
	c-8.5,3.1-74,7-75.1,0c-1.1-7,1-29.7,4.1-27.2C210.3,639.3,225.9,644.9,229.4,639.8z"/>
<path class="st5" d="M242,416.6c0,0,22.2,15.1,23.2,17.1c1,2,13.9,8.2,3.3,13.2s-38.6-26.8-38.6-26.8L242,416.6z"/>
<path class="st7" d="M231,387.5c0,0,16.1,31.2,13.1,32.2c-3.1,1-15.1,7-15.1,7l-5.5-31.7L231,387.5z"/>
<path class="st8" d="M231,387.5c0,0,16.1,31.2,13.1,32.2c-3.1,1-15.1,7-15.1,7l-5.5-31.7L231,387.5z"/>
<path class="st6" d="M229.9,413.6c0,0,3.6,26.2,2,31.7c-1.6,5.5,1,88.7-1,93.2s-3.6,33.8-3.6,37.3c0,3.5,4.1,32.2,5.1,34.8
	c1,2.6,4.1,11.1,2.5,15.1c-1.6,4-22.2,14.1-25.2,10.6c-3-3.5-0.5-14.6-3.1-15.1c-2.6-0.5-5.5-24.2-5.5-24.2l-16.6-92.6
	c0,0-31.2-77.6-24.2-85.1C167.3,411.8,229.9,413.6,229.9,413.6z"/>
<path class="st9" d="M229.9,413.6c0,0,3.6,26.2,2,31.7c-1.6,5.5,1,88.7-1,93.2s-3.6,33.8-3.6,37.3c0,3.5,4.1,32.2,5.1,34.8
	c1,2.6,4.1,11.1,2.5,15.1c-1.6,4-22.2,14.1-25.2,10.6c-3-3.5-0.5-14.6-3.1-15.1c-2.6-0.5-5.5-24.2-5.5-24.2l-16.6-92.6
	c0,0-31.2-77.6-24.2-85.1C167.3,411.8,229.9,413.6,229.9,413.6z"/>
<circle class="st5" cx="211.3" cy="210.1" r="24.7"/>
<path class="st5" d="M220.4,230.2c0,0-8,21.2-7,25.7s-23.7-8-23.7-8s1.5-24.7,0-31.2S220.4,230.2,220.4,230.2z"/>
<path class="st10" d="M152.6,368.1c0.1,4.2,0.2,6.7,0.2,6.7s-1.5,23.2,0.9,30.7c2.4,7.5,2.5,13.1,4.1,18.1c0.4,1.5,6.5,2.2,14.9,2.6
	c7.8,0.3,17.6,0.2,27,0.1c15.6-0.3,30.1-1.2,32.6-1.7c5.5-0.9-0.9-9.6,1-14.1s-3.5-62.4-3.5-62.4s0.5-32.7-2-45.4
	c-2.5-12.7-12.1-32.7-14.1-35.3s-0.5-4.1,4.1-7c4.6-3,0-14.6,0-14.6c-8.5-7-30.2-8-30.2-8s-33.3,34.3-35.3,41.3
	c-1.2,4.2-0.7,38.3-0.2,64.6C152.3,353.6,152.6,362.4,152.6,368.1z"/>
<path class="st5" d="M195.2,430.8c0,0,19.1,39.3,4.1,41.8c-15.1,2.5-22.7-35.8-22.7-35.8L195.2,430.8z"/>
<path class="st4" d="M234.4,197.6c0.9-4.2-2.4-8.2-5.8-10.8c-7.4-5.8-16.5-8.9-25.9-8.9c-6.6,0-13.4,1.8-18.4,6.1
	c-5.8,5.1-8.4,13.2-8,20.9c0.4,7.7,3.8,15,8.4,21.2c2.2,3,5.7,6.1,9.1,4.8c1.3-0.7,2.5-1.7,3.4-2.8c2.2-2.7,4.2-5.7,5.8-8.9
	c1.2-2.4,2.3-5,4.1-7c1.7-2.1,4.4-3.6,7-3.2c2.2,0.3,4.4,1.9,6.5,1.2c2.3-0.8,2.9-3.8,3.1-6.3c0.2-2.7,0.1-5.9,0.8-8.4
	C225.2,195.8,234,199.6,234.4,197.6z"/>
<path class="st2" d="M152.6,368.1c5.7,20.4,18.6,54.6,19.3,56.1c0.2,0.4,0.5,1.2,0.8,2.1c7.8,0.3,17.6,0.3,27,0.1
	c-1.5-3.8-3.1-7.6-3.1-8.7c0-2.5-12.1-67.5-12.1-67.5s9.6-28.7,18.1-52.9c8.5-24.2-25.4-19.4-25.4-19.4c-18.1-4.6-21.4,3.3-21.4,3.3
	s-1.6,42.5-3.8,62.6c-0.6,5.1-1.2,8.9-1.7,9.9C149.5,355.2,150.7,360.7,152.6,368.1z"/>
<path class="st10" d="M184.6,261.5c0,0,23.2,9.6,14.6,33.8s-18.1,52.9-18.1,52.9s12.1,65,12.1,67.5s7.6,16.1,4.6,18.6
	c-3,2.5-23.2,7.6-23.7,5.1c-1.6-5.8-3.4-11.5-5.5-17.1c-1-2-24.7-65-21.6-70.5c2.2-4.1,4.1-41.4,5.1-60.9
	c0.4-11.3,6.8-21.5,16.6-26.9C173.3,261.4,178.8,260.1,184.6,261.5z"/>
<rect x="247.9" y="408.9" class="st1" width="29.8" height="29.8"/>
<circle class="st4" cx="262.8" cy="399.8" r="9.1"/>
<path class="st0" d="M614.7,95.9c0,33.9-20.2,45.8-45,45.8s-45-11.8-45-45.8s45-77.1,45-77.1S614.7,62,614.7,95.9z"/>
<path class="st11" d="M614.8,20.3c-11.9,0-23.4,4.7-31.8,13.1c13.2,15.6,31.6,41,31.6,62.6c0,4.8-0.4,9.6-1.4,14.2h1.5
	c24.8,0,45-20.1,45-45S639.6,20.3,614.8,20.3L614.8,20.3z"/>
<polygon class="st12" points="568,136.5 568.4,108.1 587.6,73 568.5,103.7 568.7,90.9 582,65.5 568.7,87.6 568.7,87.6 569.1,64.6 
	583.3,44.4 569.2,61 569.4,18.9 568,74.6 568,72.3 553.6,50.2 567.8,76.7 566.5,102.4 566.5,101.7 549.8,78.5 566.4,104.1 
	566.2,107.3 566.2,107.4 566.2,107.6 562.8,172.7 567.4,172.7 567.9,139.1 584.4,113.5 "/>
<path class="st0" d="M723.2,146.7c-10.8,32.2-33.6,37-57.2,29.1c-23.6-7.8-39-25.5-28.2-57.7s67.1-58.8,67.1-58.8
	S734,114.5,723.2,146.7z"/>
<polygon class="st12" points="666.1,170.4 675.5,143.6 704.8,116.3 677,139.3 681.2,127.3 701.8,107.5 682.3,124.1 682.3,124.1 
	690,102.5 709.9,87.8 691.2,99.1 704.7,59.2 685.7,111.6 686.5,109.4 679.9,83.9 684.9,113.6 675.5,137.5 675.7,136.9 667.3,109.5 
	674.9,139.1 673.7,142.1 673.6,142.1 673.6,142.4 649.7,203 654,204.4 665.2,172.7 689,153.7 "/>
<path class="st0" d="M499.6,120.8c12.2,31.6-2.3,50-25.6,58.9c-23.3,8.9-46.3,5.1-58.5-26.5s14.3-88.2,14.3-88.2
	S487.4,89.2,499.6,120.8z"/>
<polygon class="st12" points="470.6,175.4 460.8,148.8 466.1,109.1 459.3,144.6 454.9,132.6 458.1,104.1 453.7,129.5 453.7,129.5 
	445.8,107.9 451.7,83.9 444.6,104.5 429.6,65.1 448.3,117.6 447.6,115.5 426.2,100.1 449,119.7 456.9,144.1 456.7,143.5 
	432.9,127.7 457.5,145.7 458.5,148.8 458.4,148.9 458.6,149.1 478.8,211 483,209.4 471.4,177.8 477.7,148 "/>
<path class="st1" d="M403.9,389.8c-2.8,4.5-6.4,4.4-9.7,2.3c-3.3-2.1-5-5.3-2.2-9.7c2.8-4.4,12.3-6.4,12.3-6.4
	S406.7,385.3,403.9,389.8z"/>
<path class="st1" d="M736.9,256.3c0.5,5.2-2.4,7.4-6.2,7.8c-3.8,0.4-7.1-1.2-7.6-6.4c-0.5-5.2,5.8-12.6,5.8-12.6
	S736.3,251.1,736.9,256.3z"/>
<path class="st1" d="M389,295c-2.8,4.5-6.4,4.4-9.7,2.3c-3.3-2.1-5-5.3-2.1-9.7c2.8-4.4,12.3-6.4,12.3-6.4S391.9,290.5,389,295z"/>
</svg>
