<?xml version="1.0" encoding="utf-8"?>
<!-- Generator: Adobe Illustrator 23.0.2, SVG Export Plug-In . SVG Version: 6.00 Build 0)  -->
<svg version="1.1" id="ef155387-c885-4ebf-8cb5-c452ea0af16e"
	 xmlns="http://www.w3.org/2000/svg" xmlns:xlink="http://www.w3.org/1999/xlink" x="0px" y="0px" viewBox="0 0 921.8 653.5"
	 style="enable-background:new 0 0 921.8 653.5;" xml:space="preserve">
<style type="text/css">
	.st0{fill:#FF3249;}
	.st1{opacity:0.2;enable-background:new    ;}
	.st2{fill:#FFB8B8;}
	.st3{fill:#202020;}
	.st4{opacity:0.1;fill:#FF3249;enable-background:new    ;}
</style>
<title>developer</title>
<polygon class="st0" points="458.4,224.1 462.2,217.5 443.3,213.7 441.4,223.2 444.2,230.8 "/>
<polygon class="st1" points="458.4,224.1 462.2,217.5 443.3,213.7 441.4,223.2 444.2,230.8 "/>
<circle class="st2" cx="447.5" cy="195.2" r="24.6"/>
<polygon class="st2" points="426.7,195.2 406.8,228.4 436.2,245.4 451.3,210.4 "/>
<path class="st0" d="M424.8,234.1l-25.6-10.4c0,0-38.8,6.6-42.6,18.9s-3.8,111.8-3.8,111.8s-9.5,24.6,3.8,25.6c0,0-3.8,5.7,0,6.6
	s42.6,0,57.8,4.7s45.5,8.5,45.5,3.8v-8.5c0,0,6.6-6.6,2.8-18s-8.5-36-8.5-36s28.4-62.5,25.6-70.1c-2.8-7.6-37.5-31-37.5-31
	L424.8,234.1z"/>
<polygon class="st2" points="366.1,354.4 367,362 380.3,345.9 375.5,345.9 "/>
<path class="st0" d="M424.8,234.1l-27.5-6.6c0,0-5.7-4.7-5.7-10.4s8.5-14.2,14.2-19.9c1-1,2.4-1.6,3.8-1.6c5.6,0,12.4,7.3,12.4,7.3
	l-7.6,12.6l-0.4,0.6L424.8,234.1z"/>
<path class="st0" d="M446,222.8l16.2-5.3c0,0,5.2,20.4-0.5,21.3s-36.9-1.9-36.9-1.9L446,222.8z"/>
<path d="M358.5,381.9L346.2,452c0,0-4.7,8.5-2.8,12.3s2.8,3.8,0,5.7s-6.6,0-5.7,4.7c0.5,2.8,0.9,5.7,0.9,8.5l-26.5,90.9
	c0,0-17.1,7.6-4.7,12.3c12.3,4.7,24.6,8.5,27.5,3.8c2.8-4.7,0-10.4,0-10.4l43.6-104.2c0,0,6.6-9.5,6.6-15.2s21.8-46.4,21.8-46.4
	s0.9,40.7,1.9,43.6s-1.9,8.5-1.9,12.3s-1.9,3.8,0,5.7s1.9,23.7,1.9,23.7s-11.4,84.3-4.7,85.3c6.6,0.9,25.6-0.9,25.6-4.7
	s-2.8-4.7-2.8-4.7l12.3-72c0,0-0.9-4.7,0.9-8.5s1.9-3.8,1.9-5.7s-0.9-2.8,0-3.8c0.6-0.8,1-1.8,0.9-2.8c0,0-1.9-5.7-0.9-6.6
	s21.8-72,15.2-80.5S358.5,381.9,358.5,381.9z"/>
<path d="M404.9,581.7l-6.6,15.2c0,0-15.2,17.1-3.8,20.8s15.2,2.8,15.2,2.8s4.7,0.9,4.7,2.8s37.9,16.1,40.7,3.8
	c2.8-12.3-29.4-35-29.4-35v-11.4L404.9,581.7z"/>
<path d="M331.9,588.7l1.4,16.5c0,0,8.9,21-3,20.9c-11.9-0.1-15.3-2.2-15.3-2.2s-4.8-0.7-5.4,1.1c-0.6,1.8-41,3.1-39.8-9.5
	c1.2-12.6,39-23.8,39-23.8l3.6-10.8L331.9,588.7z"/>
<path class="st3" d="M423.6,202c1.5-0.1,2.6-1.8,2.9-3.3c0.4-1.5,0.6-3.3,1.4-4.6c2.4-3.7,8.5-2.2,11-5.9c1.5-2.2,1.2-5.9,3.4-7.3
	c1.4-0.9,3.1-0.5,4.7,0.1c6,2.2,11.4,5.5,16.2,9.7l2-1.6l2.5,4.9c0.9-1.1,2.8-0.3,3.6,1c0.8,1.3,1.2,2.9,2.4,3.9
	c1.8,1.5,4.6,0.2,5.8-1.9c1.1-2.1,0.9-4.8,0.6-7.2c-1-6.1-3-11.9-6-17.3l2.3-1.3l-2.9-0.4l1.1-2.6h-3l1.2-2.2
	c-4.1,1.4-8.3-1.1-12.3-3.1c-6.5-3.3-13.9-4.6-21.1-3.6c-7.4,1.2-13.9,5.5-18.1,11.7c-3.1,4.9-4.9,12-3.3,17.9
	C419.1,194.1,425.4,195,423.6,202z"/>
<path class="st0" d="M362.3,238.8c0,0-5.7-0.9-9.5,6.6s-32.2,68.2-18,87.2s27.5,24.6,27.5,24.6l2.8,0.9l14.2-15.2l-4.7-6.6
	c0,0,0-6.6-3.8-7.6s-3.8,1.9-4.7-1.9s3.8-0.9-0.9-4.7s-0.9-5.7-0.9-5.7L362.3,238.8z"/>
<polygon class="st2" points="462.7,365.3 461.8,372.9 448.5,356.8 453.2,356.8 "/>
<path class="st0" d="M461.3,259.2c0,0,13.3-6.6,17.1,0.9s29.8,64.4,15.6,83.4c-14.2,18.9-27.5,24.6-27.5,24.6l-2.8,0.9l-14.2-15.2
	l4.7-6.6c0,0,0-6.6,3.8-7.6s3.8,1.9,4.7-1.9s-3.8-0.9,0.9-4.7s0.9-5.7,0.9-5.7L461.3,259.2z"/>
<polygon class="st1" points="371.3,276.2 360.9,317.9 373.2,333.1 367.5,314.1 "/>
<path class="st1" d="M422.2,202.9l-7.6,12.6c-4.7-1.6-5.1-12.7-4.9-20C415.3,195.5,422.2,202.9,422.2,202.9z"/>
<path class="st4" d="M349.5,616.3c-33.7,0-65.6,0.4-93.9,1c3.5-3.6,5.6-9.1,5.5-16.9c-0.2-16.9-22.7-38.1-22.7-38.1l-0.1,0.1l0,0
	c-1.5,1.5-22.1,22.2-21.9,38.5c0.1,8.2,2.6,13.9,6.5,17.4c-50.3,1.8-82.8,4.7-82.8,8c0,5.5,93.7,9.9,209.4,9.9s209.4-4.5,209.4-9.9
	S465.2,616.3,349.5,616.3z"/>
<path class="st4" d="M226.2,529.8c1.8-2.6,2.8-6,2.8-10.6c-0.1-11.9-16.1-26.9-16.1-26.9l-0.1,0.1l0,0c-1,1-15.5,15.6-15.4,27.1
	c-0.1,3.7,0.9,7.3,2.8,10.3c-25.2,0.4-44,2-44,3.9c0,2.2,25.5,4,56.8,4s56.8-1.8,56.8-4C269.9,531.8,251.3,530.2,226.2,529.8z"/>
<rect x="521.6" y="282.3" class="st3" width="375.9" height="191.4"/>
<rect x="589.7" y="346.7" class="st0" width="38.1" height="3.1"/>
<rect x="640.5" y="346.7" class="st0" width="38.1" height="3.1"/>
<rect x="714.3" y="376.1" class="st0" width="38.1" height="3.1"/>
<rect x="765.8" y="376.1" class="st0" width="38.1" height="3.1"/>
<rect x="692" y="346.7" class="st0" width="111.8" height="3.1"/>
<rect x="589.7" y="376.1" class="st0" width="111.8" height="3.1"/>
<rect x="589.7" y="405.4" class="st0" width="111.8" height="3.1"/>
<rect x="726.1" y="405.4" class="st0" width="77.7" height="3.1"/>
<polygon class="st0" points="579.1,360.2 565.7,346.7 579.1,333.4 581.8,336 571.1,346.7 581.8,357.4 "/>
<polygon class="st0" points="839.9,422 837.3,419.3 848,408.6 837.3,397.9 839.9,395.2 853.4,408.6 "/>
<rect x="810" y="406.3" transform="matrix(0.29 -0.957 0.957 0.29 194.1885 1078.0675)" class="st0" width="27.4" height="3.8"/>
<path class="st4" d="M112.5,559.5l-0.1-8.4l70-115.6l-70.2,104.4l-1.6-126.1l80.7-158.5l-81,138.7l-0.8-56.7L165,222.7l-55.6,99.6
	l-1.3-102l60.2-91.7l-60.5,75.6L103.5,18l0,0l0.7,236.3l-66.6-95.6L104,274.3l-2.7,114.1l-0.3-3l-76.7-101L101.1,396l-0.4,14.3
	l-0.1,0.2l0.1,1.1l-3.4,147.9c-40.8,0.3-72.8,2.7-72.8,5.7c0,3.1,36.1,5.7,80.5,5.7s80.5-2.6,80.5-5.7
	C185.6,562.2,153.5,559.8,112.5,559.5z"/>
</svg>
