<?xml version="1.0" encoding="utf-8"?>
<!-- Generator: Adobe Illustrator 23.0.2, SVG Export Plug-In . SVG Version: 6.00 Build 0)  -->
<svg version="1.1" id="ef155387-c885-4ebf-8cb5-c452ea0af16e"
	 xmlns="http://www.w3.org/2000/svg" xmlns:xlink="http://www.w3.org/1999/xlink" x="0px" y="0px" viewBox="0 0 1081 771.9"
	 style="enable-background:new 0 0 1081 771.9;" xml:space="preserve">
<style type="text/css">
	.st0{fill:#FF3249;}
	.st1{fill:#202020;}
	.st2{opacity:0.5;fill:#FF3249;enable-background:new    ;}
	.st3{fill:#F0F0F0;}
	.st4{opacity:0.1;fill:#FF3249;enable-background:new    ;}
	.st5{opacity:0.5;enable-background:new    ;}
</style>
<title>ui</title>
<path class="st0" d="M667.2,186v509.1c0,12.6-10.2,22.8-22.8,22.8H437.7c-12.6,0-22.8-10.2-22.8-22.8c0,0,0,0,0-0.1V185.8
	c0-12.6,10.2-22.8,22.8-22.8c0,0,0,0,0.1,0h30.9v4c0,10.4,8.5,18.8,18.9,18.8h105.1c10.4,0,18.9-8.4,18.9-18.8v-4h33
	C657,163.1,667.2,173.3,667.2,186L667.2,186z"/>
<rect x="423.9" y="248.2" class="st1" width="234.3" height="114.1"/>
<path class="st2" d="M518.2,326.5c6.1,22.7,27.2,36.7,27.2,36.7s11-22.7,4.9-45.4c-6.2-22.7-27.1-36.7-27.1-36.7
	S512,303.8,518.2,326.5z"/>
<path class="st0" d="M527.3,321.6c16.8,16.4,18.9,41.6,18.9,41.6s-25.3-1.4-42.1-17.8c-16.8-16.3-18.8-41.6-18.8-41.6
	S510.4,305.2,527.3,321.6z"/>
<path class="st2" d="M574,326.5c-6.2,22.7-27.2,36.7-27.2,36.7s-11-22.7-4.9-45.4c6.1-22.7,27.2-36.7,27.2-36.7
	S580.1,303.8,574,326.5z"/>
<path class="st0" d="M565,321.6c-16.8,16.4-18.9,41.6-18.9,41.6s25.2-1.4,42.1-17.8c16.8-16.3,18.8-41.6,18.8-41.6
	S581.8,305.2,565,321.6z"/>
<rect x="444.8" y="426.2" class="st3" width="192.4" height="10.5"/>
<rect x="444.8" y="443.2" class="st3" width="192.4" height="10.5"/>
<rect x="444.8" y="460.3" class="st3" width="192.4" height="10.5"/>
<rect x="444.8" y="477.3" class="st3" width="192.4" height="10.5"/>
<rect x="514.8" y="548.2" transform="matrix(0.5789 -0.8154 0.8154 0.5789 -240.6164 683.143)" class="st3" width="52.6" height="52.6"/>
<path d="M547,622.1c-6.7,0-12.2-5.4-12.2-12.2c0-6.7,5.4-12.2,12.2-12.2c6.7,0,12.2,5.4,12.2,12.2c0,0,0,0,0,0
	C559.1,616.7,553.7,622.1,547,622.1z M547,599.9c-5.6,0-10.1,4.5-10.1,10.1c0,5.6,4.5,10.1,10.1,10.1c5.6,0,10.1-4.5,10.1-10.1
	c0,0,0,0,0,0l0,0C557,604.5,552.5,600,547,599.9z"/>
<path class="st4" d="M328.1,76.8v509.1c0,12.6-10.3,22.8-22.9,22.8H98.5c-12.6,0-22.8-10.2-22.8-22.8c0,0,0,0,0-0.1V76.7
	C75.7,64.1,85.9,54,98.5,54h31v4c0,10.4,8.5,18.8,18.9,18.9h105.2c10.4,0,18.8-8.5,18.8-18.9v-4h32.8
	C317.8,54,328.1,64.2,328.1,76.8z"/>
<path class="st5" d="M301.8,332h-202V151.2h202V332z M101.9,330h198V153.3h-198V330z"/>
<rect x="199.9" y="107.4" transform="matrix(0.6665 -0.7455 0.7455 0.6665 -113.0977 230.3309)" class="st5" width="2.1" height="268.3"/>
<rect x="66.8" y="240.5" transform="matrix(0.7455 -0.6665 0.6665 0.7455 -109.8632 195.3921)" class="st5" width="268.3" height="2.1"/>
<rect x="100.9" y="384.5" class="st5" width="199.9" height="2.1"/>
<rect x="100.9" y="402.7" class="st5" width="199.9" height="2.1"/>
<rect x="100.9" y="420.9" class="st5" width="199.9" height="2.1"/>
<rect x="100.9" y="439.1" class="st5" width="100" height="2.1"/>
<rect x="100.9" y="457.2" class="st5" width="100" height="2.1"/>
<path class="st4" d="M1005.4,76.8v509.1c0,12.6-10.2,22.8-22.8,22.8H775.8c-12.6,0-22.8-10.2-22.8-22.8c0,0,0,0,0-0.1V76.7
	c0.1-12.6,10.3-22.7,22.8-22.7h30.9v4c0,10.4,8.5,18.9,18.9,18.9h105.1c10.4,0,18.8-8.5,18.9-18.9v-4h33
	C995.1,54,1005.4,64.2,1005.4,76.8z"/>
<rect x="780.2" y="314.8" class="st5" width="199.9" height="2.1"/>
<rect x="780.2" y="367.3" class="st5" width="199.9" height="2.1"/>
<rect x="780.2" y="419.9" class="st5" width="199.9" height="2.1"/>
<circle class="st0" cx="874.8" cy="205.3" r="32.8"/>
<rect x="929.7" y="305.7" class="st0" width="14.1" height="32.3"/>
<rect x="805.4" y="357.3" class="st0" width="14.1" height="32.3"/>
<rect x="888.3" y="408.7" class="st0" width="14.1" height="32.3"/>
<path class="st5" d="M879.2,242.1c-22.3,0-40.4-18.1-40.4-40.4s18.1-40.4,40.4-40.4c22.3,0,40.4,18.1,40.4,40.4l0,0
	C919.6,224,901.5,242.1,879.2,242.1z M879.2,163.4c-21.2,0-38.3,17.2-38.3,38.3s17.2,38.3,38.3,38.3c21.2,0,38.3-17.1,38.3-38.3
	C917.5,180.6,900.4,163.4,879.2,163.4L879.2,163.4z"/>
</svg>
