<?xml version="1.0" encoding="utf-8"?>
<!-- Generator: Adobe Illustrator 23.0.2, SVG Export Plug-In . SVG Version: 6.00 Build 0)  -->
<svg version="1.1" id="Layer_1" xmlns="http://www.w3.org/2000/svg" xmlns:xlink="http://www.w3.org/1999/xlink" x="0px" y="0px"
	 viewBox="0 0 60.3 60.3" style="enable-background:new 0 0 60.3 60.3;" xml:space="preserve">
<style type="text/css">
	.st0{fill:#FFFFFF;}
</style>
<g>
	<g>
		<path class="st0" d="M54.4,5.2c0.4,0,0.8,0.4,0.8,0.8v48.4c0,0.3-0.4,0.8-0.9,0.8H6c-0.4,0-0.8-0.4-0.8-0.8V6
			c0-0.4,0.4-0.8,0.8-0.8H54.4 M54.4,0.2H6C2.8,0.2,0.2,2.8,0.2,6v48.4c0,3.2,2.6,5.8,5.8,5.8h48.3c3.2,0,5.9-2.7,5.9-5.8V6
			C60.2,2.8,57.6,0.2,54.4,0.2L54.4,0.2z"/>
	</g>
</g>
<g>
	<polygon class="st0" points="43.8,16.5 37.2,16.5 26.9,27.1 16.6,16.5 16.6,43.8 20.9,43.8 20.9,27.4 26.9,33.5 	"/>
	<polygon class="st0" points="32.5,32.5 29.3,35.8 37.2,43.6 43.8,43.6 	"/>
</g>
</svg>
